# xmcd CD database file
# Copyright (C) 1993-1998 Ti Kan
# 
# Track frame offsets:
# 183
# 12715
# 14608
# 23978
# 36515
# 45080
# 64733
# 94428
# 106323
# 117008
# 126150
# 133948
# 143323
# 155635
# 166845
# 173930
# 194295
# 205613
# 242028
# 254053
# 264295
# 272388
# 
# Disc length: 4054 seconds
# 
# Revision: 0
# Processed by: cddbd v1.4b41PL1 Copyright (c) Steve Scherf et al.
# Submitted via: SuperSonic v3.01
# 
DISCID=350fd416
DTITLE=Disney - Buffalo Bill's Wild West Show
DYEAR=1900
DGENRE=
TTITLE0=Oh Susanna
TTITLE1=Auguste's Entrance
TTITLE2=The Cavalcade And Maze
TTITLE3=Buffalo Bill
TTITLE4=Annie Oakley /(Little Missie)
TTITLE5=Chief Sitting Bull
TTITLE6=The Cattle Trail And Settin Up Camp
TTITLE7=Dinner Time
TTITLE8=Sweet Betsy From Pike
TTITLE9=Turkey In The Straw
TTITLE10=Night To Day
TTITLE11=Waking Up
TTITLE12=The Buffalo Quest
TTITLE13=Yankee Doodle
TTITLE14=The Opening Of The Rodeo
TTITLE15=The Rodeo Games
TTITLE16=The Medicine Ball Game
TTITLE17=The Deadwood Stage
TTITLE18=The Reward
TTITLE19=Home On The Range
TTITLE20=The Final Review
TTITLE21=Farewell To The West
EXTD=
EXTT0=
EXTT1=
EXTT2=
EXTT3=
EXTT4=
EXTT5=
EXTT6=
EXTT7=
EXTT8=
EXTT9=
EXTT10=
EXTT11=
EXTT12=
EXTT13=
EXTT14=
EXTT15=
EXTT16=
EXTT17=
EXTT18=
EXTT19=
EXTT20=
EXTT21=
PLAYORDER=
